<svg width="764" height="663" viewBox="0 0 764 663" fill="none" xmlns="http://www.w3.org/2000/svg">
<path d="M24.3759 100.802C109.079 71.2454 247.956 55.9083 247.956 55.9083L643.618 9.04723L686.161 297.874C686.161 297.874 708.878 466.523 764.017 547.07C635.027 595.034 406.66 624.858 406.66 624.858L84.6333 663L11.879 168.932C11.879 168.932 0.279536 129.509 24.3759 100.802V100.802Z" fill="black" fill-opacity="0.39216"/>
<path d="M12.0291 90.264C109.212 65.1791 239.764 49.8568 239.764 49.8568L635.442 2.98093L677.968 291.808C677.968 291.808 692.542 405.085 747.665 485.617C642.655 599.103 398.468 618.792 398.468 618.792L76.4411 656.949L3.68683 162.866C3.68683 162.866 -2.62807 115.364 12.0291 90.264V90.264Z" fill="url(#paint0_linear)" stroke="black" stroke-width="4"/>
<defs>
<linearGradient id="paint0_linear" x1="50.9267" y1="95.163" x2="70.7143" y2="145.759" gradientUnits="userSpaceOnUse">
<stop stop-color="#C8C800"/>
<stop offset="1" stop-color="#FFFF49"/>
</linearGradient>
</defs>
</svg>
